<?xml version="1.0" encoding="UTF-8"?>
<!DOCTYPE svg PUBLIC "-//W3C//DTD SVG 1.1//EN" "http://www.w3.org/Graphics/SVG/1.1/DTD/svg11.dtd">
<!-- Creator: CorelDRAW 2026 -->
<svg xmlns="http://www.w3.org/2000/svg" xml:space="preserve" width="525px" height="292px" version="1.1" style="shape-rendering:geometricPrecision; text-rendering:geometricPrecision; image-rendering:optimizeQuality; fill-rule:evenodd; clip-rule:evenodd"
viewBox="0 0 25.86 14.39"
 xmlns:xlink="http://www.w3.org/1999/xlink"
 xmlns:xodm="http://www.corel.com/coreldraw/odm/2003">
 <defs>
  <style type="text/css">
   <![CDATA[
    .fil0 {fill:#0077BD}
    .fil1 {
      fill:#FF2C2C;
      animation: raioPulse 1.8s ease-in-out infinite;
    }
    @keyframes raioPulse {
      0%, 100% { fill:#FF2C2C; opacity:1; }
      50% { fill:#FF7A7A; opacity:0.82; }
    }
   ]]>
  </style>
 </defs>
 <g id="Camada_x0020_1">
  <metadata id="CorelCorpID_0Corel-Layer"/>
  <path class="fil0" d="M3.97 1.41l20.39 0.06c0.14,1.62 0.28,10.46 -0.1,11.52l-20.32 0 0.03 -11.58zm-1.3 1.5c-1.11,0.06 -1.66,-0.22 -2.25,0.4 -0.6,0.71 -0.47,6.52 -0.17,7.73 0.86,0.53 1.17,0.3 2.4,0.42 0.02,3.47 0.14,2.9 6.37,2.88l12.92 0.03c4.63,-0.01 3.8,-0.04 3.8,-8.01 0,-7.56 2.51,-6.29 -15.9,-6.26 -6.56,0.01 -7.19,-0.92 -7.17,2.81z"/>
  <path class="fil0" d="M23.47 4.01c-0.34,0.18 -4.39,7.18 -4.68,7.97 1.32,0.03 3.5,0.27 4.71,-0.17l-0.03 -7.8z"/>
  <g transform="translate(9.15 1.15) scale(0.45)">
   <path class="fil1" d="M13 0H14L12.5 10.5H21L8.5 26.5H7L9 16H0L13 0Z"/>
  </g>
 </g>
</svg>
