<?xml version="1.0" encoding="UTF-8"?>
<!DOCTYPE svg PUBLIC "-//W3C//DTD SVG 1.1//EN" "http://www.w3.org/Graphics/SVG/1.1/DTD/svg11.dtd">
<!-- Creator: CorelDRAW 2026 -->
<svg xmlns="http://www.w3.org/2000/svg" xml:space="preserve" width="51px" height="98px" version="1.1" style="shape-rendering:geometricPrecision; text-rendering:geometricPrecision; image-rendering:optimizeQuality; fill-rule:evenodd; clip-rule:evenodd"
viewBox="0 0 1.43 2.73"
 xmlns:xlink="http://www.w3.org/1999/xlink"
 xmlns:xodm="http://www.corel.com/coreldraw/odm/2003">
 <defs>
  <style type="text/css">
   <![CDATA[
    .fil0 {fill:#0077BD}
   ]]>
  </style>
 </defs>
 <g id="Camada_x0020_1">
  <metadata id="CorelCorpID_0Corel-Layer"/>
  <path class="fil0" d="M0.76 1.22c0,-0.04 0.02,-0.05 0.05,-0.05l0.42 0c0.03,0 0.04,0.02 0.04,0.05l0 0.46c0,0.03 -0.01,0.04 -0.04,0.04 -0.14,0 -0.28,0 -0.42,0l0 0c-0.03,0 -0.05,0 -0.05,-0.04l0 -0.46zm-0.6 0c0,-0.04 0.01,-0.05 0.05,-0.05l0.41 0c0.03,0 0.05,0.01 0.05,0.05l0 0.46c0,0.03 -0.01,0.04 -0.05,0.04l-0.41 0c-0.04,0 -0.05,0 -0.05,-0.04l0 -0.46zm0.6 -0.64c0,-0.03 0.02,-0.04 0.05,-0.04l0.42 0c0.03,0 0.04,0.01 0.04,0.04l0 0.46c0,0.04 0,0.05 -0.04,0.05l-0.42 0c-0.04,0 -0.05,-0.01 -0.05,-0.05l0 -0.46zm-0.6 0.01c0,-0.04 0.01,-0.05 0.05,-0.05l0.41 0c0.04,0 0.05,0.01 0.05,0.04l0 0.46c0,0.04 -0.01,0.05 -0.05,0.05l-0.41 0c-0.04,0 -0.05,-0.01 -0.05,-0.05l0 -0.45zm0.3 -0.41c0.04,-0.01 0.33,0 0.4,0 0.07,0 0.13,-0.01 0.16,0.04 0.04,0.05 0.01,0.11 -0.04,0.13 -0.03,0.01 -0.34,0 -0.4,0 -0.07,0 -0.13,0.01 -0.17,-0.03 -0.03,-0.06 0,-0.12 0.05,-0.14zm0.97 2.46c0.01,-0.07 0,-0.19 0,-0.26l0 -2.08c0,-0.06 0.01,-0.2 -0.01,-0.24 -0.04,-0.07 -0.11,-0.06 -0.21,-0.06l-1.04 0c-0.05,0 -0.15,0 -0.17,0.09 0,0.06 0,0.19 0,0.26l0 2.08c0,0.06 -0.01,0.21 0.02,0.25 0.04,0.07 0.11,0.05 0.2,0.05l1.05 0c0.08,0 0.15,-0.01 0.16,-0.09z"/>
  <path class="fil0" d="M0.49 0.29l0.45 0c0.02,0 0.03,0 0.03,-0.02 0,-0.03 -0.01,-0.03 -0.03,-0.03l-0.45 0c-0.04,0 -0.04,0.05 0,0.05z"/>
 </g>
</svg>
